<svg width="217" height="130" viewBox="0 0 217 130" fill="none" xmlns="http://www.w3.org/2000/svg">
    <path d="M0.659744 18.704H40.5477V22.16L28.0197 23.456V110.288L64.3078 109.856L71.0757 93.44H74.8197L73.0918 114.896H0.659744V111.44L13.1877 110.144V23.456L0.659744 22.16V18.704Z" fill="black"/>
    <path d="M114.564 45.056C114.564 55.712 111.348 64.496 104.916 71.408C98.4837 78.32 89.6997 81.776 78.5637 81.776C67.5237 81.776 58.7877 78.32 52.3557 71.408C45.9237 64.496 42.7077 55.712 42.7077 45.056C42.7077 34.4 45.9237 25.616 52.3557 18.704C58.7877 11.792 67.5237 8.33599 78.5637 8.33599C89.6997 8.33599 98.4837 11.792 104.916 18.704C111.348 25.616 114.564 34.4 114.564 45.056ZM58.4037 45.056C58.4037 67.232 65.1237 78.32 78.5637 78.32C92.0997 78.32 98.8677 67.232 98.8677 45.056C98.8677 34.304 97.3317 26.096 94.2597 20.432C91.1877 14.768 86.0037 11.936 78.7077 11.936C71.4117 11.936 66.1797 14.768 63.0117 20.432C59.9397 26.096 58.4037 34.304 58.4037 45.056Z" fill="black"/>
    <path d="M115.929 76.792C115.929 79 117.465 80.488 120.537 81.256C123.705 81.928 130.233 82.696 140.121 83.56C150.009 84.424 157.113 86.2 161.433 88.888C165.753 91.48 167.913 95.704 167.913 101.56C167.913 109.048 164.361 115.432 157.257 120.712C150.249 125.992 141.129 128.632 129.897 128.632C118.665 128.632 110.409 126.808 105.129 123.16C99.8486 119.608 97.2086 114.856 97.2086 108.904C97.2086 104.968 98.5046 101.224 101.097 97.672C103.689 94.216 107.481 91.768 112.473 90.328C106.617 88.216 103.689 84.712 103.689 79.816C103.689 76.936 105.177 74.536 108.153 72.616C111.129 70.6 114.489 69.352 118.233 68.872C112.185 67.144 107.529 64.168 104.265 59.944C101.001 55.624 99.3686 50.584 99.3686 44.824C99.3686 37.432 102.105 31.336 107.577 26.536C113.145 21.736 120.633 19.336 130.041 19.336C132.729 19.336 135.657 19.672 138.825 20.344C141.609 19.672 143.817 18.232 145.449 16.024C147.177 13.624 148.041 11.08 148.041 8.39199C148.041 5.70399 147.897 3.39999 147.609 1.47999C148.953 0.903994 150.297 0.615997 151.641 0.615997C152.985 0.615997 154.329 0.951996 155.673 1.62399C158.265 2.96799 159.561 5.31999 159.561 8.68C159.561 11.944 157.977 14.824 154.809 17.32C151.641 19.816 147.849 21.256 143.433 21.64C148.617 23.56 152.601 26.584 155.385 30.712C158.169 34.744 159.561 39.448 159.561 44.824C159.561 52.888 156.441 59.128 150.201 63.544C144.057 67.96 136.473 70.168 127.449 70.168C124.089 70.264 121.305 71.032 119.097 72.472C116.985 73.816 115.929 75.256 115.929 76.792ZM108.297 107.32C108.297 112.408 110.361 116.44 114.489 119.416C118.713 122.488 124.137 124.024 130.761 124.024C137.481 124.024 143.481 122.344 148.761 118.984C154.041 115.624 156.729 111.4 156.825 106.312C156.825 103.048 155.769 100.6 153.657 98.968C151.833 97.528 149.289 96.568 146.025 96.088C142.761 95.608 138.201 95.032 132.345 94.36C126.585 93.784 121.641 93.064 117.513 92.2C114.921 93.544 112.713 95.608 110.889 98.392C109.161 101.272 108.297 104.248 108.297 107.32ZM129.033 67.144C134.409 67.144 138.393 65.08 140.985 60.952C143.577 56.824 144.873 51.448 144.873 44.824C144.873 29.944 139.929 22.504 130.041 22.504C124.665 22.504 120.633 24.52 117.945 28.552C115.353 32.488 114.057 37.912 114.057 44.824C114.057 59.704 119.049 67.144 129.033 67.144Z" fill="black"/>
    <path d="M216.032 45.056C216.032 55.712 212.816 64.496 206.384 71.408C199.952 78.32 191.168 81.776 180.032 81.776C168.992 81.776 160.256 78.32 153.824 71.408C147.392 64.496 144.176 55.712 144.176 45.056C144.176 34.4 147.392 25.616 153.824 18.704C160.256 11.792 168.992 8.33599 180.032 8.33599C191.168 8.33599 199.952 11.792 206.384 18.704C212.816 25.616 216.032 34.4 216.032 45.056ZM159.872 45.056C159.872 67.232 166.592 78.32 180.032 78.32C193.568 78.32 200.336 67.232 200.336 45.056C200.336 34.304 198.8 26.096 195.728 20.432C192.656 14.768 187.472 11.936 180.176 11.936C172.88 11.936 167.648 14.768 164.48 20.432C161.408 26.096 159.872 34.304 159.872 45.056Z" fill="black"/>
    <path d="M0.659744 18.704H40.5477V22.16L28.0197 23.456V110.288L64.3078 109.856L71.0757 93.44H74.8197L73.0918 114.896H0.659744V111.44L13.1877 110.144V23.456L0.659744 22.16V18.704Z" stroke="black" stroke-opacity="0.5"/>
    <path d="M114.564 45.056C114.564 55.712 111.348 64.496 104.916 71.408C98.4837 78.32 89.6997 81.776 78.5637 81.776C67.5237 81.776 58.7877 78.32 52.3557 71.408C45.9237 64.496 42.7077 55.712 42.7077 45.056C42.7077 34.4 45.9237 25.616 52.3557 18.704C58.7877 11.792 67.5237 8.33599 78.5637 8.33599C89.6997 8.33599 98.4837 11.792 104.916 18.704C111.348 25.616 114.564 34.4 114.564 45.056ZM58.4037 45.056C58.4037 67.232 65.1237 78.32 78.5637 78.32C92.0997 78.32 98.8677 67.232 98.8677 45.056C98.8677 34.304 97.3317 26.096 94.2597 20.432C91.1877 14.768 86.0037 11.936 78.7077 11.936C71.4117 11.936 66.1797 14.768 63.0117 20.432C59.9397 26.096 58.4037 34.304 58.4037 45.056Z" stroke="black" stroke-opacity="0.5"/>
    <path d="M115.929 76.792C115.929 79 117.465 80.488 120.537 81.256C123.705 81.928 130.233 82.696 140.121 83.56C150.009 84.424 157.113 86.2 161.433 88.888C165.753 91.48 167.913 95.704 167.913 101.56C167.913 109.048 164.361 115.432 157.257 120.712C150.249 125.992 141.129 128.632 129.897 128.632C118.665 128.632 110.409 126.808 105.129 123.16C99.8486 119.608 97.2086 114.856 97.2086 108.904C97.2086 104.968 98.5046 101.224 101.097 97.672C103.689 94.216 107.481 91.768 112.473 90.328C106.617 88.216 103.689 84.712 103.689 79.816C103.689 76.936 105.177 74.536 108.153 72.616C111.129 70.6 114.489 69.352 118.233 68.872C112.185 67.144 107.529 64.168 104.265 59.944C101.001 55.624 99.3686 50.584 99.3686 44.824C99.3686 37.432 102.105 31.336 107.577 26.536C113.145 21.736 120.633 19.336 130.041 19.336C132.729 19.336 135.657 19.672 138.825 20.344C141.609 19.672 143.817 18.232 145.449 16.024C147.177 13.624 148.041 11.08 148.041 8.39199C148.041 5.70399 147.897 3.39999 147.609 1.47999C148.953 0.903994 150.297 0.615997 151.641 0.615997C152.985 0.615997 154.329 0.951996 155.673 1.62399C158.265 2.96799 159.561 5.31999 159.561 8.68C159.561 11.944 157.977 14.824 154.809 17.32C151.641 19.816 147.849 21.256 143.433 21.64C148.617 23.56 152.601 26.584 155.385 30.712C158.169 34.744 159.561 39.448 159.561 44.824C159.561 52.888 156.441 59.128 150.201 63.544C144.057 67.96 136.473 70.168 127.449 70.168C124.089 70.264 121.305 71.032 119.097 72.472C116.985 73.816 115.929 75.256 115.929 76.792ZM108.297 107.32C108.297 112.408 110.361 116.44 114.489 119.416C118.713 122.488 124.137 124.024 130.761 124.024C137.481 124.024 143.481 122.344 148.761 118.984C154.041 115.624 156.729 111.4 156.825 106.312C156.825 103.048 155.769 100.6 153.657 98.968C151.833 97.528 149.289 96.568 146.025 96.088C142.761 95.608 138.201 95.032 132.345 94.36C126.585 93.784 121.641 93.064 117.513 92.2C114.921 93.544 112.713 95.608 110.889 98.392C109.161 101.272 108.297 104.248 108.297 107.32ZM129.033 67.144C134.409 67.144 138.393 65.08 140.985 60.952C143.577 56.824 144.873 51.448 144.873 44.824C144.873 29.944 139.929 22.504 130.041 22.504C124.665 22.504 120.633 24.52 117.945 28.552C115.353 32.488 114.057 37.912 114.057 44.824C114.057 59.704 119.049 67.144 129.033 67.144Z" stroke="black" stroke-opacity="0.5"/>
    <path d="M216.032 45.056C216.032 55.712 212.816 64.496 206.384 71.408C199.952 78.32 191.168 81.776 180.032 81.776C168.992 81.776 160.256 78.32 153.824 71.408C147.392 64.496 144.176 55.712 144.176 45.056C144.176 34.4 147.392 25.616 153.824 18.704C160.256 11.792 168.992 8.33599 180.032 8.33599C191.168 8.33599 199.952 11.792 206.384 18.704C212.816 25.616 216.032 34.4 216.032 45.056ZM159.872 45.056C159.872 67.232 166.592 78.32 180.032 78.32C193.568 78.32 200.336 67.232 200.336 45.056C200.336 34.304 198.8 26.096 195.728 20.432C192.656 14.768 187.472 11.936 180.176 11.936C172.88 11.936 167.648 14.768 164.48 20.432C161.408 26.096 159.872 34.304 159.872 45.056Z" stroke="black" stroke-opacity="0.5"/>
</svg>
